0
SECTION
2
HEADER
9
$INSUNITS
70
4
9
$ACADVER
1
AC1014
9
$HANDSEED
5
FFFF
0
ENDSEC
0
SECTION
2
TABLES
0
TABLE
2
VPORT
5
8
100
AcDbSymbolTable
0
ENDTAB
0
TABLE
2
LTYPE
5
5
100
AcDbSymbolTable
0
LTYPE
5
14
100
AcDbSymbolTableRecord
100
AcDbLinetypeTableRecord
2
BYBLOCK
70
0
0
LTYPE
5
15
100
AcDbSymbolTableRecord
100
AcDbLinetypeTableRecord
2
BYLAYER
70
0
0
ENDTAB
0
TABLE
2
LAYER
5
2
100
AcDbSymbolTable
70
2
0
LAYER
5
50
100
AcDbSymbolTableRecord
100
AcDbLayerTableRecord
2
0
70
0
6
CONTINUOUS
0
ENDTAB
0
TABLE
2
STYLE
5
3
100
AcDbSymbolTable
70
1
0
STYLE
5
11
100
AcDbSymbolTableRecord
100
AcDbTextStyleTableRecord
2
STANDARD
70
0
0
ENDTAB
0
TABLE
2
VIEW
5
6
100
AcDbSymbolTable
70
0
0
ENDTAB
0
TABLE
2
UCS
5
7
100
AcDbSymbolTable
70
0
0
ENDTAB
0
TABLE
2
APPID
5
9
100
AcDbSymbolTable
70
2
0
APPID
5
12
100
AcDbSymbolTableRecord
100
AcDbRegAppTableRecord
2
ACAD
70
0
0
ENDTAB
0
TABLE
2
DIMSTYLE
5
A
100
AcDbSymbolTable
70
1
0
ENDTAB
0
TABLE
2
BLOCK_RECORD
5
1
100
AcDbSymbolTable
70
1
0
BLOCK_RECORD
5
1F
100
AcDbSymbolTableRecord
100
AcDbBlockTableRecord
2
*MODEL_SPACE
0
BLOCK_RECORD
5
1B
100
AcDbSymbolTableRecord
100
AcDbBlockTableRecord
2
*PAPER_SPACE
0
ENDTAB
0
ENDSEC
0
SECTION
2
BLOCKS
0
BLOCK
5
20
100
AcDbEntity
100
AcDbBlockBegin
2
*MODEL_SPACE
0
ENDBLK
5
21
100
AcDbEntity
100
AcDbBlockEnd
0
BLOCK
5
1C
100
AcDbEntity
100
AcDbBlockBegin
2
*PAPER_SPACE
0
ENDBLK
5
1D
100
AcDbEntity
100
AcDbBlockEnd
0
ENDSEC
0
SECTION
2
ENTITIES
0
LINE
5
100
100
AcDbEntity
8
0
100
AcDbLine
10
-120
20
30
30
0
11
-20
21
30
31
0
0
LINE
5
101
100
AcDbEntity
8
0
100
AcDbLine
10
-20
20
30
30
0
11
120
21
30
31
0
0
ARC
5
102
100
AcDbEntity
8
0
100
AcDbCircle
10
-120
20
25
30
0
40
5
210
0
220
-0
230
1
100
AcDbArc
50
90
51
270
0
SPLINE
5
103
100
AcDbEntity
8
0
100
AcDbSpline
70
4
71
5
72
21
73
15
74
0
42
0.000000001
43
0.0000000001
44
0.0000000001
40
0
40
0
40
0
40
0
40
0
40
0
40
0.10000000000000001
40
0.20000000000000001
40
0.30000000000000004
40
0.40000000000000002
40
0.5
40
0.59999999999999998
40
0.69999999999999996
40
0.79999999999999993
40
0.89999999999999991
40
1
40
1
40
1
40
1
40
1
40
1
41
1
41
1
41
1
41
1
41
1
41
1
41
1
41
1
41
1
41
1
41
1
41
1
41
1
41
1
41
1
10
-80
20
0
30
0
10
-76.961380360663384
20
0.56146854418269398
30
0
10
-71.251739589076863
20
1.6689428877681565
30
0
10
-63.790050844406764
20
3.2837671408494784
30
0
10
-56.083168281744236
20
5.3425566574861865
30
0
10
-50.400978452019558
20
7.7498304285459358
30
0
10
-48.906488065329242
20
9.9809518854759265
30
0
10
-51.711721643221573
20
12.031208804071627
30
0
10
-58.587630589163162
20
13.910235935081928
30
0
10
-69.148960321868003
20
15.634238712290212
30
0
10
-82.993627801191508
20
17.220130445488117
30
0
10
-96.430921737976902
20
18.389506652683465
30
0
10
-107.74326109268863
20
19.21461604200443
30
0
10
-115.82447500765616
20
19.741988828675691
30
0
10
-120
20
20
30
0
0
SPLINE
5
104
100
AcDbEntity
8
0
100
AcDbSpline
70
4
71
5
72
36
73
30
74
0
42
0.000000001
43
0.0000000001
44
0.0000000001
40
0
40
0
40
0
40
0
40
0
40
0
40
0.040000000000000001
40
0.080000000000000002
40
0.12
40
0.16
40
0.20000000000000001
40
0.24000000000000002
40
0.28000000000000003
40
0.32000000000000001
40
0.35999999999999999
40
0.39999999999999997
40
0.43999999999999995
40
0.47999999999999993
40
0.51999999999999991
40
0.55999999999999994
40
0.59999999999999998
40
0.64000000000000001
40
0.68000000000000005
40
0.72000000000000008
40
0.76000000000000012
40
0.80000000000000016
40
0.84000000000000019
40
0.88000000000000023
40
0.92000000000000026
40
0.9600000000000003
40
1
40
1
40
1
40
1
40
1
40
1
41
1
41
1
41
1
41
1
41
1
41
1
41
1
41
1
41
1
41
1
41
1
41
1
41
1
41
1
41
1
41
1
41
1
41
1
41
1
41
1
41
1
41
1
41
1
41
1
41
1
41
1
41
1
41
1
41
1
41
1
10
-80.000001192092896
20
1.3715727222366848e-19
30
0
10
-80.564246588799421
20
0.77804914285772386
30
0
10
-81.738737017786633
20
2.2594738332916684
30
0
10
-83.63847148174365
20
4.2575902420628218
30
0
10
-86.448169539441878
20
6.4725340201457238
30
0
10
-90.410940397432881
20
8.4850318899539285
30
0
10
-94.785256637830614
20
9.7307658298427544
30
0
10
-99.486902252239105
20
10.197763956199051
30
0
10
-104.36948548772347
20
9.8746143193497176
30
0
10
-109.20686072238254
20
8.7526270408584796
30
0
10
-113.72835891902767
20
6.8375122337777858
30
0
10
-117.65304239763778
20
4.161024817572585
30
0
10
-120.72514603061671
20
0.79394033505686978
30
0
10
-122.74729163704377
20
-3.1424556747813988
30
0
10
-123.62110282652621
20
-7.4590351923431655
30
0
10
-123.33781646038084
20
-11.9209989228123
30
0
10
-121.95969547352067
20
-16.277771662337102
30
0
10
-119.60589912999984
20
-20.289676818226958
30
0
10
-116.43769265187701
20
-23.756502695385159
30
0
10
-112.64482919022021
20
-26.544346894847642
30
0
10
-108.42933055855177
20
-28.57141830362519
30
0
10
-103.98978745585539
20
-29.795855216588127
30
0
10
-99.505665985424486
20
-30.203575605112739
30
0
10
-95.121608118709673
20
-29.796828928182517
30
0
10
-90.931371289615896
20
-28.58301622672769
30
0
10
-86.988992876853231
20
-26.571924451038594
30
0
10
-84.053529972858442
20
-24.332980866939845
30
0
10
-81.977904291947311
20
-22.302673590978973
30
0
10
-80.649995309463591
20
-20.793497700816804
30
0
10
-80.000001192092896
20
-20.000000298023224
30
0
0
SPLINE
5
105
100
AcDbEntity
8
0
100
AcDbSpline
70
4
71
5
72
21
73
15
74
0
42
0.000000001
43
0.0000000001
44
0.0000000001
40
0
40
0
40
0
40
0
40
0
40
0
40
0.10000000000000001
40
0.20000000000000001
40
0.30000000000000004
40
0.40000000000000002
40
0.5
40
0.59999999999999998
40
0.69999999999999996
40
0.79999999999999993
40
0.89999999999999991
40
1
40
1
40
1
40
1
40
1
40
1
41
1
41
1
41
1
41
1
41
1
41
1
41
1
41
1
41
1
41
1
41
1
41
1
41
1
41
1
41
1
10
-80
20
-20
30
0
10
-76.961380360663469
20
-20.561468544180251
30
0
10
-71.251739589077118
20
-21.668942887761617
30
0
10
-63.790050844407219
20
-23.283767140839231
30
0
10
-56.083168281744889
20
-25.342556657475509
30
0
10
-50.400978452020134
20
-27.74983042853972
30
0
10
-48.906488065329398
20
-29.980951885475967
30
0
10
-51.711721643220727
20
-32.031208804077039
30
0
10
-58.587630589161115
20
-33.910235935090526
30
0
10
-69.148960321865161
20
-35.634238712299549
30
0
10
-82.993627801188552
20
-37.22013044549599
30
0
10
-96.430921737974586
20
-38.38950665268883
30
0
10
-107.74326109268728
20
-39.214616042007314
30
0
10
-115.82447500765566
20
-39.74198882867671
30
0
10
-120
20
-40
30
0
0
LINE
5
106
100
AcDbEntity
8
0
100
AcDbLine
10
-120
20
-50
30
0
11
-20
21
-50
31
0
0
ARC
5
107
100
AcDbEntity
8
0
100
AcDbCircle
10
-120
20
-45
30
0
40
5
210
0
220
-0
230
1
100
AcDbArc
50
90
51
270
0
LINE
5
108
100
AcDbEntity
8
0
100
AcDbLine
10
-20
20
-50
30
0
11
120
21
-50
31
0
0
ARC
5
109
100
AcDbEntity
8
0
100
AcDbCircle
10
120
20
20
30
0
40
10
210
-0
220
0
230
1
100
AcDbArc
50
-90
51
90
0
SPLINE
5
110
100
AcDbEntity
8
0
100
AcDbSpline
70
4
71
5
72
21
73
15
74
0
42
0.000000001
43
0.0000000001
44
0.0000000001
40
0
40
0
40
0
40
0
40
0
40
0
40
0.10000000000000001
40
0.20000000000000001
40
0.30000000000000004
40
0.40000000000000002
40
0.5
40
0.59999999999999998
40
0.69999999999999996
40
0.79999999999999993
40
0.89999999999999991
40
1
40
1
40
1
40
1
40
1
40
1
41
1
41
1
41
1
41
1
41
1
41
1
41
1
41
1
41
1
41
1
41
1
41
1
41
1
41
1
41
1
10
120
20
10
30
0
10
116.20761954026328
20
9.2000000000032749
30
0
10
108.95404539914715
20
7.6000000000090076
30
0
10
99.067214073825554
20
5.2000000000151161
30
0
10
87.904786188904041
20
2.0000000000185985
30
0
10
77.546930527510824
20
-1.9999999999835429
30
0
10
71.105551803000083
20
-5.9999999999904077
30
0
10
68.900264321036829
20
-9.9999999999999183
30
0
10
71.105551803019637
20
-14.000000000009765
30
0
10
77.546930527545243
20
-18.000000000017376
30
0
10
87.904786188944101
20
-22.000000000020158
30
0
10
99.067214073858523
20
-25.20000000001664
30
0
10
108.9540453991669
20
-27.600000000009949
30
0
10
116.20761954027047
20
-29.200000000003623
30
0
10
120
20
-30
30
0
0
ARC
5
111
100
AcDbEntity
8
0
100
AcDbCircle
10
120
20
-40
30
0
40
10
210
-0
220
0
230
1
100
AcDbArc
50
-90
51
90
0
CIRCLE
5
112
100
AcDbEntity
8
0
100
AcDbCircle
10
-105
20
-2.9355463729013254
30
0
40
1.9272496391617722
210
0
220
-0
230
1
0
LWPOLYLINE
5
113
100
AcDbEntity
8
0
100
AcDbPolyline
90
2
70
1
43
0.0
10
-88.426216330076272
20
-3.6363644235056025
42
0.91138662500351708
10
-89.039432124355017
20
-16.776702872335886
42
-0.70868439876736211
0
CIRCLE
5
114
100
AcDbEntity
8
0
100
AcDbCircle
10
-105
20
-15
30
0
40
1.9054628302853924
210
0
220
-0
230
1
0
LWPOLYLINE
5
115
100
AcDbEntity
8
0
100
AcDbPolyline
90
2
70
1
43
0.0
10
-115
20
-5
42
0.44487430299551473
10
-109.45075784820473
20
3.7222251078393533
42
-0.25531826795174178
0
LWPOLYLINE
5
116
100
AcDbEntity
8
0
100
AcDbPolyline
90
2
70
1
43
0.0
10
-110.50198492411114
20
-22.996463071448883
42
0.49692246430772119
10
-115.32010902201557
20
-12.922203594012336
42
-0.28633805709107568
0
ENDSEC
0
SECTION
2
OBJECTS
0
DICTIONARY
5
C
100
AcDbDictionary
3
ACAD_GROUP
350
D
3
ACAD_MLINESTYLE
350
17
0
DICTIONARY
5
D
100
AcDbDictionary
0
DICTIONARY
5
1A
330
C
100
AcDbDictionary
0
DICTIONARY
5
17
100
AcDbDictionary
0
ENDSEC
0
EOF
